<?xml version="1.0" encoding="UTF-8"?>
<svg version="1.1" xmlns="http://www.w3.org/2000/svg" width="512" height="512">
<path d="M0 0 C3 2 3 2 3.6875 4.625 C3.790625 5.40875 3.89375 6.1925 4 7 C4.6911792 6.83846436 5.3823584 6.67692871 6.09448242 6.51049805 C11.7679186 5.51367803 17.56620118 5.80314657 23.3125 5.8125 C23.98585388 5.81310425 24.65920776 5.8137085 25.35296631 5.81433105 C52.30538446 5.88029429 52.30538446 5.88029429 57.3984375 9.88671875 C59 12 59 12 59 15.0625 C57.83692866 18.47902206 57.03937617 19.1763743 54 21 C51.421875 21.51171875 51.421875 21.51171875 48.75 21.6875 C47.41195312 21.78611328 47.41195312 21.78611328 46.046875 21.88671875 C45.37140625 21.92410156 44.6959375 21.96148438 44 22 C44 22.66 44 23.32 44 24 C44.87269531 24.1134375 45.74539063 24.226875 46.64453125 24.34375 C60.50237793 27.05401571 72.00626706 37.52828881 79.93359375 48.703125 C90.77392758 65.99847802 98.22353459 89.53875077 95 110 C94.35748291 110.61649414 93.71496582 111.23298828 93.05297852 111.86816406 C90.6833629 114.32879951 90.28777992 115.71416744 89.69140625 119.03515625 C89.50425049 120.00461182 89.31709473 120.97406738 89.12426758 121.97290039 C88.93888428 122.99246826 88.75350098 124.01203613 88.5625 125.0625 C87.11124693 132.39961195 85.65684432 139.15635448 82.11328125 145.81640625 C79.16713872 151.59498055 78.60164691 157.08543797 78.125 163.4375 C76.51179723 181.63296518 71.3628977 201.6371023 58 215 C58.9379541 215.01458252 59.8759082 215.02916504 60.84228516 215.04418945 C64.34269379 215.10546717 67.84234449 215.17965932 71.34228516 215.26245117 C72.85324904 215.29557926 74.36433307 215.32364855 75.87548828 215.34643555 C78.05553082 215.38020681 80.23448439 215.43252896 82.4140625 215.48828125 C83.7232666 215.51446533 85.0324707 215.54064941 86.38134766 215.56762695 C92.65596759 216.31734709 96.67883912 218.98301507 100.546875 223.77734375 C104.85443396 230.36605624 106.97451045 237.26631367 108 245 C109.00788574 244.97381592 110.01577148 244.94763184 111.05419922 244.9206543 C114.83733419 244.82931759 118.62037434 244.77245239 122.40429688 244.7253418 C124.03369603 244.70038558 125.66298542 244.66640746 127.29199219 244.62280273 C137.52431678 244.356009 146.53304711 244.13861158 154.59301758 251.44384766 C162.66910885 260.41597883 162.14956416 270.42826139 162.14526367 281.75317383 C162.14862228 283.0256044 162.1519809 284.29803497 162.15544128 285.60902405 C162.16423818 289.0843816 162.16661758 292.55971449 162.16725707 296.0350821 C162.16797005 298.2109841 162.17010904 300.38687992 162.17275429 302.56278038 C162.18199359 310.16693898 162.18609097 317.77108011 162.18530273 325.37524414 C162.18470239 332.44217435 162.19524938 339.50902812 162.2110464 346.575939 C162.22415989 352.66111539 162.22948503 358.74626692 162.22884732 364.83145732 C162.22859345 368.45793042 162.23138332 372.08433553 162.24202538 375.71079445 C162.25358504 379.76012957 162.24893631 383.8092954 162.24291992 387.85864258 C162.24853943 389.04598999 162.25415894 390.2333374 162.25994873 391.45666504 C162.21977691 402.12862391 161.71773075 411.05215342 154 419 C146.63062152 425.64258197 139.13027686 426.30269065 129.5625 426.125 C126.406875 426.08375 123.25125 426.0425 120 426 C120 432.93 120 439.86 120 447 C122.31402832 446.95286865 122.31402832 446.95286865 124.67480469 446.90478516 C130.44460848 446.79549092 136.21432235 446.72705072 141.98486328 446.67041016 C144.47362702 446.64039394 146.96228638 446.59956742 149.45068359 446.54736328 C153.04551061 446.47388185 156.63892922 446.44038984 160.234375 446.4140625 C161.88043732 446.36761093 161.88043732 446.36761093 163.55975342 446.32022095 C171.81153987 446.31669367 178.10545717 448.42089323 185 453 C187.48027984 455.48232303 189.28375305 457.94688701 191 461 C191.61875 462.03125 192.2375 463.0625 192.875 464.125 C195.41629537 470.70513981 195.06523035 479.63402783 193 486.3125 C189.74234616 493.42427951 184.03605292 499.12465804 176.95703125 502.34375 C172.73053627 503.76101778 168.715132 504.12584858 164.27457905 504.13142776 C163.12475365 504.13526891 161.97492825 504.13911005 160.79025966 504.1430676 C158.90215478 504.14176787 158.90215478 504.14176787 156.97590637 504.14044189 C155.62165784 504.14302665 154.26741008 504.14604011 152.91316336 504.1494453 C149.19264462 504.15750566 145.47214518 504.15930433 141.75161874 504.16004276 C137.73852101 504.161895 133.72543326 504.1694432 129.71234131 504.17617798 C120.93745379 504.18975504 112.16257084 504.19578506 103.38767457 504.20018864 C97.90748832 504.20295215 92.42730382 504.20718971 86.94711876 504.21169281 C71.77096193 504.22388472 56.59480652 504.23418415 41.41864491 504.2375679 C40.44749203 504.23778747 39.47633915 504.23800703 38.4757574 504.23823325 C37.50229461 504.23845153 36.52883181 504.23866981 35.52587014 504.2388947 C33.55329819 504.23933817 31.58072625 504.23978473 29.6081543 504.24023438 C28.62969265 504.2404558 27.651231 504.24067723 26.643119 504.24090537 C10.79101515 504.2448528 -5.06104272 504.2623055 -20.91312882 504.2855939 C-37.19229587 504.30931647 -53.47143986 504.32177017 -69.75062448 504.32293582 C-78.88913084 504.32385208 -88.02757728 504.32959197 -97.16606712 504.34775543 C-104.94820461 504.36316864 -112.73026367 504.36826968 -120.51241352 504.36001733 C-124.48124347 504.35611513 -128.44991553 504.35701931 -132.41872597 504.37107468 C-136.05645651 504.38383945 -139.69391093 504.3825937 -143.33164123 504.37048396 C-145.26161944 504.36761083 -147.19160253 504.37944322 -149.12154263 504.39190602 C-158.93252649 504.33630808 -168.70847273 503.1845611 -176 496 C-181.7330647 489.07530522 -184.52306355 482.20762313 -184.25390625 473.07421875 C-183.15526923 464.09919943 -178.79199826 457.34281032 -172.171875 451.39453125 C-164.94423373 446.75376159 -158.19161517 446.58911163 -149.84375 446.70703125 C-148.70087524 446.71127609 -147.55800049 446.71552094 -146.38049316 446.71989441 C-142.75341591 446.73660026 -139.1269075 446.77423844 -135.5 446.8125 C-133.03125806 446.82755725 -130.56250736 446.84124383 -128.09375 446.85351562 C-122.06228298 446.88647743 -116.03123773 446.93820453 -110 447 C-110 440.07 -110 433.14 -110 426 C-115.84798282 426.11753509 -115.84798282 426.11753509 -121.69506836 426.27026367 C-130.03974403 426.35373736 -137.45289382 424.35672324 -144 419 C-151.39098149 410.76726784 -151.29811337 402.12707818 -151.29052734 391.51245117 C-151.29651903 390.14834732 -151.30332604 388.78424684 -151.31088257 387.42015076 C-151.32848494 383.72991058 -151.33323551 380.03976327 -151.33451414 376.34948516 C-151.3359396 374.03956825 -151.34021665 371.72967466 -151.34550858 369.41976357 C-151.36398995 361.34875627 -151.37218158 353.27781486 -151.37060547 345.20678711 C-151.36940465 337.70351598 -151.39049991 330.20053277 -151.4220928 322.69733447 C-151.44831163 316.2384781 -151.45897042 309.77971545 -151.45769465 303.32080632 C-151.45718665 299.47069204 -151.46277942 295.62083383 -151.48405075 291.77077293 C-151.50352814 288.14676387 -151.50349366 284.52325268 -151.48901749 280.89922523 C-151.48595616 278.94980052 -151.50253921 277.00037523 -151.51989746 275.05102539 C-151.45918096 266.49892767 -150.37691899 259.10787999 -144.81640625 252.34375 C-144.07261719 251.7353125 -143.32882813 251.126875 -142.5625 250.5 C-141.82128906 249.8709375 -141.08007812 249.241875 -140.31640625 248.59375 C-135.22184321 245.08855317 -130.7013708 244.7224938 -124.63671875 244.8046875 C-123.84473587 244.8075174 -123.05275299 244.81034729 -122.23677063 244.81326294 C-119.72019001 244.82441137 -117.20397211 244.84950578 -114.6875 244.875 C-112.97591662 244.88503671 -111.26432763 244.89416136 -109.55273438 244.90234375 C-105.36835094 244.92433319 -101.18423686 244.95882592 -97 245 C-96.85594727 243.74590332 -96.71189453 242.49180664 -96.56347656 241.19970703 C-95.61693214 232.95926496 -92.03363879 224.73931495 -86 219 C-81.39886697 216.21014801 -77.47812966 215.53714275 -72.1953125 215.48828125 C-71.4713327 215.47033005 -70.74735291 215.45237885 -70.00143433 215.43388367 C-67.70934723 215.38008862 -65.41746459 215.34598598 -63.125 215.3125 C-61.56247173 215.27929951 -59.99997034 215.24480734 -58.4375 215.20898438 C-54.62514831 215.12438077 -50.812854 215.05742441 -47 215 C-47.38599365 214.57444824 -47.7719873 214.14889648 -48.16967773 213.71044922 C-60.67876225 199.57985258 -65.1722114 182.36191855 -67.83935547 164.1159668 C-68.62402671 159.18211509 -69.78365209 155.7299631 -72.73828125 151.74609375 C-82.27281448 138.55124436 -82.30905467 116.52141227 -82 101 C-83.485 100.505 -83.485 100.505 -85 100 C-89.30760133 91.38479734 -86.75977086 73.3617779 -83.984375 64.47265625 C-78.82901464 51.52288202 -72.0877054 43.35609905 -59.17578125 37.76171875 C-57 37 -57 37 -54.390625 36.75390625 C-51.74061156 36.21689655 -51.74061156 36.21689655 -50.55859375 33.453125 C-50.18863281 32.39609375 -49.81867188 31.3390625 -49.4375 30.25 C-45.65201899 19.61397722 -37.42984962 13.50438383 -27.74609375 8.2265625 C-8.89792136 -0.70987543 -8.89792136 -0.70987543 0 0 Z M-20.6875 19.1875 C-21.30044922 19.47947266 -21.91339844 19.77144531 -22.54492188 20.07226562 C-29.07874525 23.29414036 -34.67171426 27.34342853 -38 34 C-38.90512633 38.30963559 -39.50674205 42.62558085 -40 47 C-40.845625 47.09796875 -41.69125 47.1959375 -42.5625 47.296875 C-53.3358839 48.71700288 -60.45511516 50.89923702 -67.30859375 59.67578125 C-72.07504834 66.50722803 -74.93941703 75.64711119 -74 84 C-73.34588135 84.57153809 -72.6917627 85.14307617 -72.01782227 85.73193359 C-69.22281403 88.87357019 -69.45882416 91.01172616 -69.390625 95.171875 C-69.37408875 95.8542926 -69.35755249 96.53671021 -69.34051514 97.23980713 C-69.29210161 99.40996354 -69.27068135 101.57941972 -69.25 103.75 C-69.22183438 105.22529552 -69.19190611 106.70055851 -69.16015625 108.17578125 C-69.08634775 111.78370198 -69.03673106 115.39148972 -69 119 C-68.67 119 -68.34 119 -68 119 C-67.78085938 117.76765625 -67.56171875 116.5353125 -67.3359375 115.265625 C-64.9938176 102.76588791 -62.57371861 90.5127815 -52.00390625 82.26953125 C-46.83559219 78.99525821 -41.00015268 78.17410834 -35 79 C-29.67307918 80.40254854 -24.4612905 82.16560507 -19.24609375 83.93359375 C-2.91445542 89.02049749 14.74254156 85.37674374 30.3125 79.25 C38.1211407 76.32517659 45.87875492 75.15912001 53.890625 78.0390625 C64.00773072 83.46110419 68.48407197 93.51101068 72 104 C73.5418748 109.6181673 74.79160382 115.30231073 76 121 C76.33 121 76.66 121 77 121 C77.08564209 120.09644775 77.17128418 119.19289551 77.25952148 118.26196289 C77.57839611 114.920131 77.90123594 111.57873236 78.22680664 108.23754883 C78.3670805 106.78946093 78.50575686 105.34121738 78.64282227 103.89282227 C78.83974363 101.81483974 79.04234269 99.73747879 79.24609375 97.66015625 C79.36654053 96.40855713 79.4869873 95.15695801 79.61108398 93.86743164 C80 91 80 91 81 90 C81.42621737 76.02615912 74.09624032 60.89354933 65.375 50.3125 C54.81889947 39.11420324 41.82892392 34.49335889 27 32 C26.69993273 26.19869951 27.15449351 23.21302764 30 18 C14.31015644 16.95288144 14.31015644 16.95288144 0.23828125 22.41796875 C-1.21896593 24.09737592 -1.21896593 24.09737592 -2 27 C-4.78863007 28.39431504 -6.92078868 28.25660094 -10 28 C-12.02350324 24.96474514 -12.32124018 23.80573798 -12.625 20.3125 C-12.69976562 19.50425781 -12.77453125 18.69601563 -12.8515625 17.86328125 C-12.90054688 17.24839844 -12.94953125 16.63351563 -13 16 C-15.55434195 16 -18.38922809 18.05593493 -20.6875 19.1875 Z M32.5625 90.8125 C20.37746587 95.00607472 9.13680569 97.24484068 -3.75 97.375 C-5.16962036 97.39602783 -5.16962036 97.39602783 -6.61791992 97.41748047 C-14.94715811 97.36091272 -22.46731754 95.55714483 -30.125 92.3125 C-34.41553698 90.66838029 -38.45921405 90.12385577 -43 91 C-49.35070399 94.83438731 -51.89124627 100.0847134 -53.875 107.08984375 C-60.68882992 135.16413338 -59.61863732 172.15725202 -44.71484375 197.4140625 C-35.30657034 211.60148162 -22.94475666 221.61312722 -6.16625977 225.60302734 C8.34515115 228.2622806 23.20351818 225.78509761 35.59765625 217.75 C53.26105621 204.88300295 61.67553126 187.91276248 65.59375 166.80078125 C68.06460086 143.68407079 67.94700448 112.28790658 53.46875 92.67578125 C50.71534407 89.53426225 48.53753497 88.13707593 44.37109375 87.765625 C40.09031521 88.06324576 36.56933794 89.34944723 32.5625 90.8125 Z M-81 233 C-82.1820075 235.02421125 -82.1820075 235.02421125 -82.8125 237.0625 C-83.04582031 237.71347656 -83.27914062 238.36445313 -83.51953125 239.03515625 C-84.15835605 241.31046346 -84.15835605 241.31046346 -84 245 C-66.84 245 -49.68 245 -32 245 C-32 239.39 -32 233.78 -32 228 C-38.17464913 227.87627098 -44.34857456 227.78559856 -50.52416992 227.7253418 C-52.6242327 227.70021949 -54.72420823 227.66611542 -56.82397461 227.62280273 C-59.8451084 227.56205129 -62.86508496 227.53376737 -65.88671875 227.51171875 C-66.82335861 227.48591232 -67.75999847 227.4601059 -68.72502136 227.43351746 C-74.56987987 227.43101064 -77.30716335 228.04832628 -81 233 Z M42 228 C42 233.61 42 239.22 42 245 C59.49 245 76.98 245 95 245 C93.27528457 237.23878056 92.37790787 233.37790787 87 228 C84.97990192 227.70848578 84.97990192 227.70848578 82.64208984 227.77294922 C81.29091568 227.77317581 81.29091568 227.77317581 79.91244507 227.77340698 C78.93844757 227.78372955 77.96445007 227.79405212 76.9609375 227.8046875 C75.46694931 227.80893234 75.46694931 227.80893234 73.94277954 227.81326294 C70.75339882 227.8244816 67.56429622 227.84958919 64.375 227.875 C62.21614988 227.88502762 60.05729537 227.89415385 57.8984375 227.90234375 C52.59885074 227.92442644 47.29947256 227.95896775 42 228 Z M24.375 235.4375 C11.74202135 239.21492098 -0.18982231 238.50623532 -12.8828125 235.65625 C-15.9583553 234.89699476 -15.9583553 234.89699476 -19 235 C-19 238.3 -19 241.6 -19 245 C-2.83 245 13.34 245 30 245 C30 241.37 30 237.74 30 234 C28.07563354 234 26.19150929 234.86400991 24.375 235.4375 Z M-136.8125 263 C-139.01221167 266.70477755 -139.12728691 270.19688766 -139.14044189 274.44514465 C-139.14615204 275.55119553 -139.15186218 276.6572464 -139.15774536 277.79681396 C-139.15886322 279.00573303 -139.15998108 280.2146521 -139.16113281 281.46020508 C-139.16609772 282.73701645 -139.17106262 284.01382782 -139.17617798 285.32933044 C-139.18927847 288.82945145 -139.19574231 292.3295533 -139.20018864 295.82969499 C-139.20312311 298.01812067 -139.20722862 300.20654116 -139.21169281 302.39496422 C-139.22536144 309.24696509 -139.23503125 316.09895405 -139.2388947 322.95096761 C-139.2433743 330.85153361 -139.26092018 338.75192651 -139.2898953 346.65243989 C-139.31153426 352.76553411 -139.32160016 358.8785797 -139.32293582 364.9917118 C-139.32398225 368.63997191 -139.32985536 372.28806916 -139.34775543 375.93628883 C-139.36734619 380.00816933 -139.36293836 384.07968887 -139.35644531 388.15161133 C-139.3656601 389.3544577 -139.37487488 390.55730408 -139.3843689 391.79660034 C-139.34737835 399.19922553 -138.95214927 404.60055539 -133.9375 410.375 C-129.964573 413.70713232 -126.10241711 413.13397407 -121.14404297 413.11352539 C-120.22691528 413.11367142 -119.3097876 413.11381744 -118.36486816 413.1139679 C-115.32395081 413.11326948 -112.2830942 413.1054804 -109.2421875 413.09765625 C-107.13754307 413.09579182 -105.0328982 413.09436803 -102.92825317 413.09336853 C-97.38143725 413.08954535 -91.8346474 413.07971674 -86.2878418 413.06866455 C-80.6307002 413.05844616 -74.97355441 413.05386999 -69.31640625 413.04882812 C-58.21092603 413.03809431 -47.10546518 413.02102026 -36 413 C-35.80365967 412.0713916 -35.60731934 411.1427832 -35.4050293 410.18603516 C-34.67110878 406.74353169 -33.92634338 403.30375447 -33.17407227 399.86523438 C-32.850674 398.37627178 -32.53163407 396.88635564 -32.21704102 395.39550781 C-31.76419033 393.25320313 -31.29579762 391.11481199 -30.82421875 388.9765625 C-30.54666748 387.68830566 -30.26911621 386.40004883 -29.9831543 385.07275391 C-29 382 -29 382 -26 380 C-23.17158508 379.75949097 -23.17158508 379.75949097 -19.69262695 379.77294922 C-17.74094353 379.77317581 -17.74094353 379.77317581 -15.74983215 379.77340698 C-14.32931363 379.78362031 -12.90879667 379.7940523 -11.48828125 379.8046875 C-10.03525487 379.80841817 -8.58222597 379.81126489 -7.12919617 379.81326294 C-3.30688518 379.82089519 0.51527354 379.84054008 4.33752441 379.8626709 C8.2386672 379.88313817 12.13983461 379.89226654 16.04101562 379.90234375 C23.69407979 379.92378643 31.34701855 379.95791736 39 380 C39.63214712 382.83189045 40.26354576 385.66394445 40.89453125 388.49609375 C41.0711731 389.28705444 41.24781494 390.07801514 41.42980957 390.89294434 C42.80622249 397.0749232 44.11458155 403.2683223 45.38671875 409.47265625 C45.74908805 411.92256091 45.74908805 411.92256091 47 413 C49.86476506 413.11122626 52.70564353 413.15739999 55.57128906 413.16113281 C56.920084 413.16858017 56.920084 413.16858017 58.29612732 413.17617798 C61.28596753 413.19084302 64.27575465 413.19760963 67.265625 413.203125 C69.33730064 413.20887392 71.40897626 413.21463169 73.48065186 413.22039795 C77.83199309 413.23092101 82.18331579 413.23675478 86.53466797 413.24023438 C92.11124326 413.24571464 97.68757382 413.26972725 103.26407242 413.29820633 C107.54659744 413.31683074 111.82906357 413.32203826 116.11162567 413.32357025 C118.16732874 413.32659895 120.22303072 413.33463475 122.27869415 413.34775543 C125.15636262 413.36480782 128.03343433 413.36293731 130.91113281 413.35644531 C132.1862397 413.37026749 132.1862397 413.37026749 133.48710632 413.3843689 C138.13478687 413.35151932 141.31427368 413.12960425 145 410 C150.36620429 404.44792205 149.56497227 398.11782902 149.51757812 390.74609375 C149.52300315 389.39534756 149.53012795 388.0446073 149.53881836 386.69387817 C149.55700987 383.03677407 149.55000179 379.38012275 149.53730202 375.72301102 C149.52715254 371.89011697 149.53657309 368.05726086 149.54284668 364.22436523 C149.55011745 357.78850365 149.54055049 351.35282585 149.52148438 344.91699219 C149.49971658 337.48350132 149.50676836 330.05044934 149.52879 322.61696911 C149.54696038 316.2269602 149.54949436 309.83708317 149.53903532 303.44705677 C149.53280934 299.63397341 149.53193991 295.82109613 149.54518127 292.00802612 C149.55676321 288.42257081 149.5486722 284.83767958 149.52560425 281.252285 C149.51781965 279.31404133 149.52965311 277.37574977 149.54211426 275.43753052 C149.51215354 266.88164291 149.51215354 266.88164291 145 260 C140.19705031 256.04089004 135.14783093 256.57770394 129.2268219 256.61231995 C128.12830759 256.60693441 127.02979327 256.60154887 125.89799064 256.59600013 C122.20995662 256.58167064 118.52227899 256.58883679 114.83422852 256.59594727 C112.19300191 256.59024632 109.55180106 256.58338401 106.9105835 256.57514954 C100.47692988 256.55795104 94.04337389 256.55712368 87.60970325 256.56236244 C82.38055378 256.5664034 77.15143317 256.56496146 71.92228508 256.55961418 C70.8060415 256.55849155 70.8060415 256.55849155 69.66724754 256.55734624 C68.1554966 256.55581476 66.64374565 256.55427642 65.13199472 256.55273127 C50.95421989 256.53900244 36.77650025 256.54444661 22.59872668 256.55591648 C9.62795774 256.56584942 -3.34266857 256.55290786 -16.31341552 256.52898229 C-29.6319438 256.5046003 -42.95040562 256.49498119 -56.26895577 256.50163502 C-63.74626028 256.50512923 -71.22345508 256.5028819 -78.70074272 256.48538399 C-85.06596923 256.47067323 -91.43100877 256.47001168 -97.79623156 256.4874549 C-101.04364814 256.49597677 -104.29066121 256.49592406 -107.53807259 256.48280334 C-111.05897868 256.46966205 -114.57897191 256.48108132 -118.09983826 256.49879456 C-119.1256157 256.48918955 -120.15139315 256.47958454 -121.20825475 256.46968848 C-128.25612212 256.5428147 -131.97553183 257.66265581 -136.8125 263 Z M-19 392 C-20.258125 397.630625 -21.51625 403.26125 -22.8125 409.0625 C-23.20284424 410.80539307 -23.59318848 412.54828613 -23.99536133 414.34399414 C-25.63709108 421.69602594 -27.2530301 429.05297387 -28.76171875 436.43359375 C-29.00237061 437.60849365 -29.24302246 438.78339355 -29.4909668 439.99389648 C-30.11130434 443.14916 -30.11130434 443.14916 -30 447 C-6.57 447 16.86 447 41 447 C36.96002807 425.91215029 36.96002807 425.91215029 32.6875 404.875 C31.800625 400.62625 30.91375 396.3775 30 392 C13.83 392 -2.34 392 -19 392 Z M-97 426 C-97 432.93 -97 439.86 -97 447 C-79.18 447 -61.36 447 -43 447 C-40.22709275 436.58484375 -40.22709275 436.58484375 -39 426 C-58.14 426 -77.28 426 -97 426 Z M49 426 C49.661538 437.483915 49.661538 437.483915 54 447 C55.68801985 447.09353163 57.37995207 447.11744791 59.07055664 447.11352539 C60.15160172 447.11344986 61.23264679 447.11337433 62.34645081 447.11329651 C63.5224736 447.10813522 64.6984964 447.10297394 65.91015625 447.09765625 C67.10732773 447.0962413 68.30449921 447.09482635 69.53794861 447.09336853 C73.37949066 447.08774979 77.22097543 447.07519411 81.0625 447.0625 C83.65950437 447.05748741 86.25650965 447.05292409 88.85351562 447.04882812 C95.23569932 447.03777427 101.61783993 447.02049708 108 447 C108 440.07 108 433.14 108 426 C88.53 426 69.06 426 49 426 Z M-168.375 465.625 C-171.59987457 470.33827821 -171.58905709 474.38712748 -171 480 C-169.51781646 484.74120156 -166.66425873 487.82317971 -162.29137623 490.18554592 C-157.27721455 491.96779555 -151.8896644 491.54506281 -146.6325531 491.50793457 C-145.2654722 491.51254676 -143.89839626 491.51890182 -142.53133065 491.52684355 C-138.78467318 491.54351644 -135.03842412 491.53530005 -131.29176533 491.52289867 C-127.24739979 491.51384215 -123.20310408 491.52782083 -119.15875244 491.53881836 C-111.24010053 491.55660128 -103.32160031 491.55276477 -95.40294247 491.5411678 C-88.96769771 491.53213349 -82.53249545 491.53090946 -76.09724617 491.53526306 C-75.18128237 491.53587599 -74.26531856 491.53648893 -73.32159828 491.53712043 C-71.46083639 491.53839933 -69.60007452 491.53969619 -67.73931266 491.5410108 C-50.29289053 491.55241576 -32.8465525 491.53930386 -15.40014417 491.51780933 C-0.42891144 491.49993543 14.54219724 491.50304502 29.51342773 491.52148438 C46.89905701 491.5428874 64.28461261 491.55132029 81.67025322 491.53903532 C83.52385611 491.53776112 85.37745902 491.53650364 87.23106194 491.53526306 C88.14307325 491.53464596 89.05508456 491.53402886 89.99473258 491.53339306 C96.42308171 491.52993867 102.85138413 491.53577033 109.27972603 491.54518127 C117.11247194 491.55639619 124.94505749 491.55337179 132.77778501 491.5320583 C136.77451764 491.52154146 140.77098286 491.51743673 144.76771355 491.53065491 C148.42622168 491.54257159 152.08421442 491.53602881 155.74267577 491.5147447 C157.69339966 491.50815789 159.6441593 491.52122122 161.59484583 491.53497362 C168.00562483 491.47735787 172.18235599 491.4255128 177 487 C180.31664822 483.32479522 181.82430791 480.79205934 182.3125 475.8125 C181.92862564 471.12923276 180.71945673 467.82553546 178 464 C173.2012582 460.18059326 169.57880221 458.87669467 163.52791214 458.86577892 C162.38370214 458.86132108 161.23949214 458.85686324 160.0606091 458.85227031 C158.16653258 458.85254685 158.16653258 458.85254685 156.23419189 458.85282898 C154.88365598 458.84953012 153.53312105 458.84580451 152.18258739 458.8416875 C148.46316202 458.83166198 144.7437528 458.82794983 141.02431583 458.82529819 C137.01601029 458.82139681 133.00771755 458.8118184 128.99942017 458.80308533 C119.31572154 458.78331692 109.63202187 458.77325454 99.94830811 458.76435754 C95.38961794 458.75997553 90.83092893 458.75460852 86.27223969 458.74936867 C71.12103644 458.73235653 55.96983392 458.71786168 40.81862259 458.71061993 C36.88624317 458.70870999 32.95386377 458.70678966 29.02148438 458.70483398 C28.04409541 458.70435024 27.06670644 458.7038665 26.05969962 458.7033681 C10.22159335 458.69506526 -5.61643746 458.669724 -21.45451078 458.63725331 C-37.70986946 458.60419839 -53.96518977 458.58617261 -70.22058225 458.58297569 C-79.34954333 458.58080921 -88.47839434 458.57204038 -97.60732269 458.54651451 C-105.38082561 458.52482897 -113.15419173 458.51674652 -120.92772147 458.52648129 C-124.8941884 458.53103216 -128.86037293 458.52909435 -132.8268013 458.50971985 C-136.45897272 458.49213121 -140.09065485 458.49305044 -143.72283116 458.50861714 C-145.65712125 458.51212734 -147.59141622 458.49593484 -149.52563548 458.47901267 C-157.7323306 458.54000199 -162.68161407 459.33231029 -168.375 465.625 Z " fill="#7674ED" transform="translate(251,5)"/>
<path d="M0 0 C1.95361328 1.25585938 1.95361328 1.25585938 3.8203125 2.84375 C4.51495605 3.42616455 5.20959961 4.0085791 5.92529297 4.60864258 C7.01414795 5.5448645 7.01414795 5.5448645 8.125 6.5 C9.65093618 7.7852815 11.1769778 9.07043783 12.703125 10.35546875 C13.44111328 10.98243652 14.17910156 11.6094043 14.93945312 12.25537109 C17.55928303 14.47353513 20.21221541 16.64610155 22.875 18.8125 C24.13957031 19.84697266 24.13957031 19.84697266 25.4296875 20.90234375 C27.28689308 22.41802672 29.14658265 23.93066773 31.0078125 25.44140625 C31.99523437 26.24449219 32.98265625 27.04757812 34 27.875 C34.886875 28.59429687 35.77375 29.31359375 36.6875 30.0546875 C37.450625 30.69664062 38.21375 31.33859375 39 32 C39.598125 32.45632813 40.19625 32.91265625 40.8125 33.3828125 C42 35 42 35 42.5234375 37.8515625 C41.82846794 42.03175256 39.74414646 43.78379604 36.625 46.375 C36.0791626 46.85050293 35.5333252 47.32600586 34.97094727 47.81591797 C30.90149311 51.33176531 26.72673741 54.7244787 22.4921875 58.0390625 C19.81080226 60.14886718 17.18781445 62.32091464 14.5625 64.5 C12.7119966 66.00451693 10.85777204 67.50446763 9 69 C7.54980469 70.17949219 7.54980469 70.17949219 6.0703125 71.3828125 C5.11898438 72.12273437 4.16765625 72.86265625 3.1875 73.625 C2.33542969 74.29789062 1.48335938 74.97078125 0.60546875 75.6640625 C-2.75132067 77.38523489 -4.4481358 77.13937066 -8 76 C-10 73 -10 73 -9.9296875 69.5859375 C-8.81681771 65.29343975 -7.64459376 64.22730587 -4.125 61.625 C-3.12726563 60.86445313 -2.12953125 60.10390625 -1.1015625 59.3203125 C-0.07804687 58.55460937 0.94546875 57.78890625 2 57 C3.84112086 55.50956883 5.67466117 54.00971828 7.5 52.5 C13 48 18.5 43.5 24 39 C22.5292822 35.39872883 20.63253476 33.65555053 17.5625 31.3125 C16.66660156 30.61769531 15.77070313 29.92289062 14.84765625 29.20703125 C13.43806641 28.11455078 13.43806641 28.11455078 12 27 C9.2401294 24.75687113 6.49571225 22.4964452 3.7578125 20.2265625 C1.91384808 18.73780936 0.03226703 17.29452529 -1.8828125 15.8984375 C-9.51447524 10.26709662 -9.51447524 10.26709662 -10.25 6.1875 C-10 3 -10 3 -8 0 C-4.63386911 -1.12204363 -3.35065965 -0.97217226 0 0 Z " fill="#8F5DF1" transform="translate(296,285)"/>
<path d="M0 0 C1.875 1.75 1.875 1.75 3 4 C2.82176759 7.44391014 2.17549494 8.8047579 -0.15234375 11.39453125 C-1.07144531 12.19246094 -1.99054688 12.99039062 -2.9375 13.8125 C-3.6790332 14.46206665 -3.6790332 14.46206665 -4.43554688 15.12475586 C-8.346141 18.52155386 -12.36555226 21.78109297 -16.44140625 24.9765625 C-20.24040044 27.98095791 -23.94177026 31.10223318 -27.65234375 34.21484375 C-30 36 -30 36 -33 37 C-28.89896324 41.27794423 -24.46831853 45.01186941 -19.875 48.75 C-18.75037354 49.67208252 -18.75037354 49.67208252 -17.60302734 50.61279297 C-14.26351161 53.34877312 -10.91547324 56.07333939 -7.546875 58.7734375 C-6.58265625 59.54945313 -5.6184375 60.32546875 -4.625 61.125 C-3.79226562 61.78757812 -2.95953125 62.45015625 -2.1015625 63.1328125 C-0.03998252 64.9644765 1.5320908 66.66749704 3 69 C2.92290543 72.16087718 2.42956578 73.52270469 0.3125 75.875 C-2.94388571 77.45918764 -4.52139056 76.96651184 -8 76 C-10.33519583 74.27172388 -12.3825817 72.58492187 -14.5 70.625 C-15.73603463 69.52221633 -16.97437878 68.42201659 -18.21484375 67.32421875 C-19.15626221 66.48769775 -19.15626221 66.48769775 -20.11669922 65.63427734 C-23.01186239 63.12193325 -26.02881163 60.77902584 -29.0625 58.4375 C-33.84470423 54.70636681 -38.61701604 50.96498126 -43.3125 47.125 C-43.8701001 46.68470459 -44.4277002 46.24440918 -45.00219727 45.79077148 C-47.33674142 43.85666625 -48.87080951 42.31063782 -50.04296875 39.4921875 C-49.98531934 36.1485216 -49.01603164 34.64817715 -47 32 C-44.90625 30.078125 -44.90625 30.078125 -42.5 28.25 C-41.61183594 27.56292969 -40.72367188 26.87585938 -39.80859375 26.16796875 C-38.88175781 25.45253906 -37.95492187 24.73710937 -37 24 C-35.18215125 22.52741173 -33.36967442 21.0481685 -31.5625 19.5625 C-30.64984375 18.81484375 -29.7371875 18.0671875 -28.796875 17.296875 C-26.90963037 15.74701488 -25.02425456 14.19487671 -23.140625 12.640625 C-5.6204207 -1.78208461 -5.6204207 -1.78208461 0 0 Z " fill="#687FEC" transform="translate(224,285)"/>
<path d="M0 0 C3.375 1 3.375 1 4.62489319 2.79475403 C5.50619472 5.38570056 5.36759239 6.63368615 4.75170898 9.28393555 C4.54947723 10.16681244 4.34724548 11.04968933 4.1388855 11.95932007 C3.88680328 12.96274445 3.63472107 13.96616882 3.375 15 C3.08964386 16.13676178 2.80428772 17.27352356 2.51028442 18.44473267 C1.47920135 22.45528108 0.41845637 26.45695316 -0.65234375 30.45703125 C-1.04591408 31.93290361 -1.43943222 33.40878989 -1.832901 34.88468933 C-2.65343337 37.95883197 -3.47668803 41.03223131 -4.30151367 44.10522461 C-5.35573466 48.03493725 -6.39981148 51.9672699 -7.44150448 55.9003191 C-8.24869848 58.94124066 -9.0628659 61.98026318 -9.87896919 65.01880455 C-10.26701455 66.46814419 -10.65253105 67.91816346 -11.03541374 69.3688755 C-11.57089349 71.39485415 -12.11614133 73.41796361 -12.66381836 75.44067383 C-12.97089218 76.58965652 -13.277966 77.73863922 -13.59434509 78.92243958 C-14.72290496 82.29234658 -16.07576435 85.45076435 -18.625 88 C-23.99329652 88.46680839 -23.99329652 88.46680839 -26.32377625 86.74465942 C-28.46654551 83.87166961 -27.66562577 81.54959709 -27.20596313 78.1317749 C-25.98438742 71.54667518 -24.2421387 65.09824565 -22.51171875 58.6328125 C-22.09646362 57.06492456 -21.68149568 55.49696054 -21.26679993 53.92892456 C-20.40048357 50.66143337 -19.52802064 47.39565713 -18.65161133 44.13085938 C-17.53072535 39.95179526 -16.42966509 35.76778502 -15.33359051 31.58215523 C-14.48425974 28.3505514 -13.6224385 25.12237742 -12.75702858 21.89504623 C-12.34563318 20.35326062 -11.9385999 18.81030402 -11.5360775 17.26617813 C-10.9728169 15.11139299 -10.39235412 12.96196262 -9.80737305 10.81298828 C-9.31892159 8.97959396 -9.31892159 8.97959396 -8.82060242 7.10916138 C-6.94036251 2.21960176 -5.36893639 0 0 0 Z " fill="#7C6EEE" transform="translate(267.625,279)"/>
</svg>
